<?xml version="1.0" encoding="utf-8"?>
<!DOCTYPE score-partwise  PUBLIC "-//Recordare//DTD MusicXML 3.1 Partwise//EN" "http://www.musicxml.org/dtds/partwise.dtd">
<score-partwise version="3.1">
  <work>
    <work-title>Little Dance in Canon Form, Mikrokosmos, Sz. 107</work-title>
  </work>
  <movement-title>31.xml</movement-title>
  <identification>
    <creator type="composer">Béla Bartók</creator>
    <creator />
    <rights>None</rights>
    <encoding>
      <encoding-date>2021-11-30</encoding-date>
      <software>music21 v.7.1.0</software>
    </encoding>
  </identification>
  <defaults>
    <scaling>
      <millimeters>70</millimeters>
      <tenths>400</tenths>
    </scaling>
    <page-layout>
      <page-height>704</page-height>
      <page-width>1272</page-width>
    </page-layout>
  </defaults>
  <part-list>
    <score-part id="P1">
      <part-name>Piano</part-name>
      <part-abbreviation>Pno</part-abbreviation>
      <score-instrument id="I1204e13f5761e89b8f1ccacfc0b8e48a">
        <instrument-name>Piano</instrument-name>
        <instrument-abbreviation>Pno</instrument-abbreviation>
      </score-instrument>
      <midi-instrument id="I1204e13f5761e89b8f1ccacfc0b8e48a">
        <midi-channel>1</midi-channel>
        <midi-program>1</midi-program>
      </midi-instrument>
    </score-part>
    <score-part id="P2">
      <part-name>Piano</part-name>
      <part-abbreviation>Pno</part-abbreviation>
      <score-instrument id="Ic8781b717288d72f29efdd1d7052c62b">
        <instrument-name>Piano</instrument-name>
        <instrument-abbreviation>Pno</instrument-abbreviation>
      </score-instrument>
      <midi-instrument id="Ic8781b717288d72f29efdd1d7052c62b">
        <midi-channel>2</midi-channel>
        <midi-program>1</midi-program>
      </midi-instrument>
    </score-part>
  </part-list>
  <!--=========================== Part 1 ===========================-->
  <part id="P1">
    <!--========================= Measure 1 ==========================-->
    <measure number="1">
      <attributes>
        <divisions>10080</divisions>
        <time>
          <beats>4</beats>
          <beat-type>4</beat-type>
        </time>
        <clef>
          <sign>G</sign>
          <line>2</line>
        </clef>
      </attributes>
      <direction placement="above">
        <direction-type>
          <metronome parentheses="no">
            <beat-unit>quarter</beat-unit>
            <per-minute>160</per-minute>
          </metronome>
        </direction-type>
        <sound tempo="160" />
      </direction>
      <direction placement="above">
        <direction-type>
          <dynamics default-x="-36" default-y="-80" relative-x="-25" relative-y="-88">
            <f />
          </dynamics>
        </direction-type>
        <sound dynamics="88" />
      </direction>
      <note color="#A1DE00">
        <pitch>
          <step>D</step>
          <octave>4</octave>
        </pitch>
        <duration>10080</duration>
        <type>quarter</type>
        <stem>up</stem>
        <notehead color="#A1DE00" parentheses="no">normal</notehead>
        <notations>
          <slur number="1" type="start" />
          <articulations>
            <accent />
          </articulations>
          <technical>
            <fingering alternate="no" substitution="no">3</fingering>
          </technical>
        </notations>
      </note>
      <note color="#A1DE00">
        <pitch>
          <step>C</step>
          <octave>4</octave>
        </pitch>
        <duration>10080</duration>
        <type>quarter</type>
        <stem>up</stem>
        <notehead color="#A1DE00" parentheses="no">normal</notehead>
        <notations>
          <technical>
            <fingering alternate="no" substitution="no">2</fingering>
          </technical>
        </notations>
      </note>
      <note color="#A1DE00">
        <pitch>
          <step>D</step>
          <octave>4</octave>
        </pitch>
        <duration>10080</duration>
        <type>quarter</type>
        <stem>up</stem>
        <notehead color="#A1DE00" parentheses="no">normal</notehead>
        <notations>
          <technical>
            <fingering alternate="no" substitution="no">3</fingering>
          </technical>
        </notations>
      </note>
      <note color="#A1DE00">
        <pitch>
          <step>E</step>
          <octave>4</octave>
        </pitch>
        <duration>10080</duration>
        <type>quarter</type>
        <stem>up</stem>
        <notehead color="#A1DE00" parentheses="no">normal</notehead>
        <notations>
          <technical>
            <fingering alternate="no" substitution="no">4</fingering>
          </technical>
        </notations>
      </note>
    </measure>
    <!--========================= Measure 2 ==========================-->
    <measure number="2">
      <note color="#A1DE00">
        <pitch>
          <step>F</step>
          <octave>4</octave>
        </pitch>
        <duration>10080</duration>
        <type>quarter</type>
        <stem>up</stem>
        <notehead color="#A1DE00" parentheses="no">normal</notehead>
        <notations>
          <technical>
            <fingering alternate="no" substitution="no">5</fingering>
          </technical>
        </notations>
      </note>
      <note color="#A1DE00">
        <pitch>
          <step>E</step>
          <octave>4</octave>
        </pitch>
        <duration>10080</duration>
        <type>quarter</type>
        <stem>up</stem>
        <notehead color="#A1DE00" parentheses="no">normal</notehead>
        <notations>
          <technical>
            <fingering alternate="no" substitution="no">3</fingering>
          </technical>
        </notations>
      </note>
      <note color="#A1DE00">
        <pitch>
          <step>D</step>
          <octave>4</octave>
        </pitch>
        <duration>20160</duration>
        <type>half</type>
        <stem>up</stem>
        <notehead color="#A1DE00" parentheses="no">normal</notehead>
        <notations>
          <slur number="1" type="stop" />
          <technical>
            <fingering alternate="no" substitution="no">2</fingering>
          </technical>
        </notations>
      </note>
    </measure>
    <!--========================= Measure 3 ==========================-->
    <measure number="3">
      <note color="#A1DE00">
        <pitch>
          <step>D</step>
          <octave>4</octave>
        </pitch>
        <duration>10080</duration>
        <type>quarter</type>
        <stem>up</stem>
        <notehead color="#A1DE00" parentheses="no">normal</notehead>
        <notations>
          <slur number="2" type="start" />
          <articulations>
            <accent />
          </articulations>
          <technical>
            <fingering alternate="no" substitution="no">2</fingering>
          </technical>
        </notations>
      </note>
      <note color="#A1DE00">
        <pitch>
          <step>E</step>
          <octave>4</octave>
        </pitch>
        <duration>10080</duration>
        <type>quarter</type>
        <stem>up</stem>
        <notehead color="#A1DE00" parentheses="no">normal</notehead>
        <notations>
          <technical>
            <fingering alternate="no" substitution="no">3</fingering>
          </technical>
        </notations>
      </note>
      <note color="#A1DE00">
        <pitch>
          <step>F</step>
          <octave>4</octave>
        </pitch>
        <duration>10080</duration>
        <type>quarter</type>
        <stem>up</stem>
        <notehead color="#A1DE00" parentheses="no">normal</notehead>
        <notations>
          <technical>
            <fingering alternate="no" substitution="no">4</fingering>
          </technical>
        </notations>
      </note>
      <note color="#A1DE00">
        <pitch>
          <step>C</step>
          <octave>4</octave>
        </pitch>
        <duration>10080</duration>
        <type>quarter</type>
        <stem>up</stem>
        <notehead color="#A1DE00" parentheses="no">normal</notehead>
        <notations>
          <technical>
            <fingering alternate="no" substitution="no">2</fingering>
          </technical>
        </notations>
      </note>
    </measure>
    <!--========================= Measure 4 ==========================-->
    <measure number="4">
      <note color="#A1DE00">
        <pitch>
          <step>D</step>
          <octave>4</octave>
        </pitch>
        <duration>20160</duration>
        <type>half</type>
        <stem>up</stem>
        <notehead color="#A1DE00" parentheses="no">normal</notehead>
        <notations>
          <slur number="2" type="stop" />
          <articulations>
            <accent />
          </articulations>
          <technical>
            <fingering alternate="no" substitution="no">3</fingering>
          </technical>
        </notations>
      </note>
      <note color="#A1DE00">
        <pitch>
          <step>D</step>
          <octave>4</octave>
        </pitch>
        <duration>10080</duration>
        <type>quarter</type>
        <stem>up</stem>
        <notehead color="#A1DE00" parentheses="no">normal</notehead>
        <notations>
          <technical>
            <fingering alternate="no" substitution="no">3</fingering>
          </technical>
        </notations>
      </note>
      <note>
        <rest />
        <duration>10080</duration>
        <type>quarter</type>
      </note>
    </measure>
    <!--========================= Measure 5 ==========================-->
    <measure number="5">
      <note color="#A1DE00">
        <pitch>
          <step>D</step>
          <octave>4</octave>
        </pitch>
        <duration>10080</duration>
        <type>quarter</type>
        <stem>up</stem>
        <notehead color="#A1DE00" parentheses="no">normal</notehead>
        <notations>
          <slur number="3" type="start" />
          <articulations>
            <accent />
          </articulations>
          <technical>
            <fingering alternate="no" substitution="no">3</fingering>
          </technical>
        </notations>
      </note>
      <note color="#F6B100">
        <pitch>
          <step>G</step>
          <octave>4</octave>
        </pitch>
        <duration>10080</duration>
        <type>quarter</type>
        <stem>up</stem>
        <notehead color="#F6B100" parentheses="no">normal</notehead>
        <notations>
          <technical>
            <fingering alternate="no" substitution="no">5</fingering>
          </technical>
        </notations>
      </note>
      <note color="#A1DE00">
        <pitch>
          <step>F</step>
          <octave>4</octave>
        </pitch>
        <duration>10080</duration>
        <type>quarter</type>
        <stem>up</stem>
        <notehead color="#A1DE00" parentheses="no">normal</notehead>
        <notations>
          <technical>
            <fingering alternate="no" substitution="no">4</fingering>
          </technical>
        </notations>
      </note>
      <note color="#F6B100">
        <pitch>
          <step>E</step>
          <octave>4</octave>
        </pitch>
        <duration>10080</duration>
        <type>quarter</type>
        <stem>up</stem>
        <notehead color="#F6B100" parentheses="no">normal</notehead>
        <notations>
          <technical>
            <fingering alternate="no" substitution="no">3</fingering>
          </technical>
        </notations>
      </note>
    </measure>
    <!--========================= Measure 6 ==========================-->
    <measure number="6">
      <note color="#A1DE00">
        <pitch>
          <step>F</step>
          <octave>4</octave>
        </pitch>
        <duration>10080</duration>
        <type>quarter</type>
        <stem>up</stem>
        <notehead color="#A1DE00" parentheses="no">normal</notehead>
        <notations>
          <technical>
            <fingering alternate="no" substitution="no">4</fingering>
          </technical>
        </notations>
      </note>
      <note color="#A1DE00">
        <pitch>
          <step>E</step>
          <octave>4</octave>
        </pitch>
        <duration>10080</duration>
        <type>quarter</type>
        <stem>up</stem>
        <notehead color="#A1DE00" parentheses="no">normal</notehead>
        <notations>
          <technical>
            <fingering alternate="no" substitution="no">3</fingering>
          </technical>
        </notations>
      </note>
      <note color="#A1DE00">
        <pitch>
          <step>D</step>
          <octave>4</octave>
        </pitch>
        <duration>10080</duration>
        <type>quarter</type>
        <stem>up</stem>
        <notehead color="#A1DE00" parentheses="no">normal</notehead>
        <notations>
          <slur number="3" type="stop" />
          <technical>
            <fingering alternate="no" substitution="no">2</fingering>
          </technical>
        </notations>
      </note>
      <note color="#A1DE00">
        <pitch>
          <step>C</step>
          <octave>4</octave>
        </pitch>
        <duration>10080</duration>
        <type>quarter</type>
        <stem>up</stem>
        <notehead color="#A1DE00" parentheses="no">normal</notehead>
        <notations>
          <technical>
            <fingering alternate="no" substitution="no">1</fingering>
          </technical>
        </notations>
      </note>
    </measure>
    <!--========================= Measure 7 ==========================-->
    <measure number="7">
      <note color="#A1DE00">
        <pitch>
          <step>D</step>
          <octave>4</octave>
        </pitch>
        <duration>10080</duration>
        <type>quarter</type>
        <stem>up</stem>
        <notehead color="#A1DE00" parentheses="no">normal</notehead>
        <notations>
          <articulations>
            <accent />
          </articulations>
          <technical>
            <fingering alternate="no" substitution="no">2</fingering>
          </technical>
        </notations>
      </note>
      <note color="#A1DE00">
        <pitch>
          <step>E</step>
          <octave>4</octave>
        </pitch>
        <duration>10080</duration>
        <type>quarter</type>
        <stem>up</stem>
        <notehead color="#A1DE00" parentheses="no">normal</notehead>
        <notations>
          <technical>
            <fingering alternate="no" substitution="no">1</fingering>
          </technical>
        </notations>
      </note>
      <note color="#A1DE00">
        <pitch>
          <step>F</step>
          <octave>4</octave>
        </pitch>
        <duration>10080</duration>
        <type>quarter</type>
        <stem>up</stem>
        <notehead color="#A1DE00" parentheses="no">normal</notehead>
        <notations>
          <technical>
            <fingering alternate="no" substitution="no">2</fingering>
          </technical>
        </notations>
      </note>
      <note color="#A1DE00">
        <pitch>
          <step>G</step>
          <octave>4</octave>
        </pitch>
        <duration>10080</duration>
        <type>quarter</type>
        <stem>up</stem>
        <notehead color="#A1DE00" parentheses="no">normal</notehead>
        <notations>
          <technical>
            <fingering alternate="no" substitution="no">3</fingering>
          </technical>
        </notations>
      </note>
    </measure>
    <!--========================= Measure 8 ==========================-->
    <measure number="8">
      <note color="#A1DE00">
        <pitch>
          <step>D</step>
          <octave>4</octave>
        </pitch>
        <duration>20160</duration>
        <type>half</type>
        <stem>up</stem>
        <notehead color="#A1DE00" parentheses="no">normal</notehead>
        <notations>
          <articulations>
            <accent />
          </articulations>
          <technical>
            <fingering alternate="no" substitution="no">1</fingering>
          </technical>
        </notations>
      </note>
      <note color="#A1DE00">
        <pitch>
          <step>D</step>
          <octave>4</octave>
        </pitch>
        <duration>10080</duration>
        <type>quarter</type>
        <stem>up</stem>
        <notehead color="#A1DE00" parentheses="no">normal</notehead>
        <notations>
          <technical>
            <fingering alternate="no" substitution="no">1</fingering>
          </technical>
        </notations>
      </note>
      <note>
        <rest />
        <duration>10080</duration>
        <type>quarter</type>
      </note>
    </measure>
    <!--========================= Measure 9 ==========================-->
    <measure number="9">
      <print new-system="yes" />
      <barline location="left">
        <repeat direction="forward" />
      </barline>
      <note color="#A1DE00">
        <pitch>
          <step>A</step>
          <octave>4</octave>
        </pitch>
        <duration>10080</duration>
        <type>quarter</type>
        <stem>up</stem>
        <notehead color="#A1DE00" parentheses="no">normal</notehead>
        <notations>
          <articulations>
            <accent />
          </articulations>
          <technical>
            <fingering alternate="no" substitution="no">3</fingering>
          </technical>
        </notations>
      </note>
      <note color="#A1DE00">
        <pitch>
          <step>B</step>
          <octave>4</octave>
        </pitch>
        <duration>10080</duration>
        <type>quarter</type>
        <stem>down</stem>
        <notehead color="#A1DE00" parentheses="no">normal</notehead>
        <notations>
          <slur number="4" type="start" />
          <technical>
            <fingering alternate="no" substitution="no">4</fingering>
          </technical>
        </notations>
      </note>
      <note color="#A1DE00">
        <pitch>
          <step>C</step>
          <octave>5</octave>
        </pitch>
        <duration>20160</duration>
        <type>half</type>
        <stem>down</stem>
        <notehead color="#A1DE00" parentheses="no">normal</notehead>
        <notations>
          <technical>
            <fingering alternate="no" substitution="no">5</fingering>
          </technical>
        </notations>
      </note>
    </measure>
    <!--========================= Measure 10 =========================-->
    <measure number="10">
      <note color="#A1DE00">
        <pitch>
          <step>B</step>
          <octave>4</octave>
        </pitch>
        <duration>10080</duration>
        <type>quarter</type>
        <stem>down</stem>
        <notehead color="#A1DE00" parentheses="no">normal</notehead>
        <notations>
          <articulations>
            <accent />
          </articulations>
          <technical>
            <fingering alternate="no" substitution="no">4</fingering>
          </technical>
        </notations>
      </note>
      <note color="#A1DE00">
        <pitch>
          <step>A</step>
          <octave>4</octave>
        </pitch>
        <duration>10080</duration>
        <type>quarter</type>
        <stem>up</stem>
        <notehead color="#A1DE00" parentheses="no">normal</notehead>
        <notations>
          <technical>
            <fingering alternate="no" substitution="no">3</fingering>
          </technical>
        </notations>
      </note>
      <note color="#A1DE00">
        <pitch>
          <step>G</step>
          <octave>4</octave>
        </pitch>
        <duration>20160</duration>
        <type>half</type>
        <stem>up</stem>
        <notehead color="#A1DE00" parentheses="no">normal</notehead>
        <notations>
          <slur number="4" type="stop" />
          <technical>
            <fingering alternate="no" substitution="no">2</fingering>
          </technical>
        </notations>
      </note>
    </measure>
    <!--========================= Measure 11 =========================-->
    <measure number="11">
      <note color="#FFFFFF">
        <pitch>
          <step>A</step>
          <octave>4</octave>
        </pitch>
        <duration>10080</duration>
        <type>quarter</type>
        <stem>up</stem>
        <notehead color="#FFFFFF" parentheses="no">normal</notehead>
        <notations>
          <articulations>
            <accent />
          </articulations>
          <technical>
            <fingering alternate="no" substitution="no">3</fingering>
          </technical>
        </notations>
      </note>
      <note color="#FFFFFF">
        <pitch>
          <step>B</step>
          <octave>4</octave>
        </pitch>
        <duration>10080</duration>
        <type>quarter</type>
        <stem>down</stem>
        <notehead color="#FFFFFF" parentheses="no">normal</notehead>
        <notations>
          <technical>
            <fingering alternate="no" substitution="no">4</fingering>
          </technical>
        </notations>
      </note>
      <note color="#FFFFFF">
        <pitch>
          <step>C</step>
          <octave>5</octave>
        </pitch>
        <duration>10080</duration>
        <type>quarter</type>
        <stem>down</stem>
        <notehead color="#FFFFFF" parentheses="no">normal</notehead>
        <notations>
          <technical>
            <fingering alternate="no" substitution="no">5</fingering>
          </technical>
        </notations>
      </note>
      <note color="#FFFFFF">
        <pitch>
          <step>G</step>
          <octave>4</octave>
        </pitch>
        <duration>10080</duration>
        <type>quarter</type>
        <stem>up</stem>
        <notehead color="#FFFFFF" parentheses="no">normal</notehead>
        <notations>
          <technical>
            <fingering alternate="no" substitution="no">2</fingering>
          </technical>
        </notations>
      </note>
    </measure>
    <!--========================= Measure 12 =========================-->
    <measure number="12">
      <note color="#FFFFFF">
        <pitch>
          <step>A</step>
          <octave>4</octave>
        </pitch>
        <duration>20160</duration>
        <type>half</type>
        <stem>up</stem>
        <notehead color="#FFFFFF" parentheses="no">normal</notehead>
        <notations>
          <technical>
            <fingering alternate="no" substitution="no">4</fingering>
          </technical>
        </notations>
      </note>
      <note color="#FFFFFF">
        <pitch>
          <step>A</step>
          <octave>4</octave>
        </pitch>
        <duration>10080</duration>
        <type>quarter</type>
        <stem>up</stem>
        <notehead color="#FFFFFF" parentheses="no">normal</notehead>
        <notations>
          <technical>
            <fingering alternate="no" substitution="no">4</fingering>
          </technical>
        </notations>
      </note>
      <note>
        <rest />
        <duration>10080</duration>
        <type>quarter</type>
      </note>
    </measure>
    <!--========================= Measure 13 =========================-->
    <measure number="13">
      <note color="#FFFFFF">
        <pitch>
          <step>F</step>
          <octave>4</octave>
        </pitch>
        <duration>10080</duration>
        <type>quarter</type>
        <stem>up</stem>
        <notehead color="#FFFFFF" parentheses="no">normal</notehead>
        <notations>
          <technical>
            <fingering alternate="no" substitution="no">3</fingering>
          </technical>
        </notations>
      </note>
      <note color="#FFFFFF">
        <pitch>
          <step>G</step>
          <octave>4</octave>
        </pitch>
        <duration>10080</duration>
        <type>quarter</type>
        <stem>up</stem>
        <notehead color="#FFFFFF" parentheses="no">normal</notehead>
        <notations>
          <slur number="5" type="start" />
          <technical>
            <fingering alternate="no" substitution="no">4</fingering>
          </technical>
        </notations>
      </note>
      <note color="#FFFFFF">
        <pitch>
          <step>A</step>
          <octave>4</octave>
        </pitch>
        <duration>20160</duration>
        <type>half</type>
        <stem>up</stem>
        <notehead color="#FFFFFF" parentheses="no">normal</notehead>
        <notations>
          <articulations>
            <accent />
          </articulations>
          <technical>
            <fingering alternate="no" substitution="no">5</fingering>
          </technical>
        </notations>
      </note>
    </measure>
    <!--========================= Measure 14 =========================-->
    <measure number="14">
      <note color="#FFFFFF">
        <pitch>
          <step>E</step>
          <octave>4</octave>
        </pitch>
        <duration>10080</duration>
        <type>quarter</type>
        <stem>up</stem>
        <notehead color="#FFFFFF" parentheses="no">normal</notehead>
        <notations>
          <slur number="5" type="stop" />
          <technical>
            <fingering alternate="no" substitution="no">3</fingering>
          </technical>
        </notations>
      </note>
      <note color="#FFFFFF">
        <pitch>
          <step>F</step>
          <octave>4</octave>
        </pitch>
        <duration>10080</duration>
        <type>quarter</type>
        <stem>up</stem>
        <notehead color="#FFFFFF" parentheses="no">normal</notehead>
        <notations>
          <technical>
            <fingering alternate="no" substitution="no">4</fingering>
          </technical>
        </notations>
      </note>
      <note color="#FFFFFF">
        <pitch>
          <step>G</step>
          <octave>4</octave>
        </pitch>
        <duration>20160</duration>
        <type>half</type>
        <stem>up</stem>
        <notehead color="#FFFFFF" parentheses="no">normal</notehead>
        <notations>
          <articulations>
            <accent />
          </articulations>
          <technical>
            <fingering alternate="no" substitution="no">5</fingering>
          </technical>
        </notations>
      </note>
    </measure>
    <!--========================= Measure 15 =========================-->
    <measure number="15">
      <note color="#FFFFFF">
        <pitch>
          <step>F</step>
          <octave>4</octave>
        </pitch>
        <duration>10080</duration>
        <type>quarter</type>
        <stem>up</stem>
        <notehead color="#FFFFFF" parentheses="no">normal</notehead>
        <notations>
          <technical>
            <fingering alternate="no" substitution="no">4</fingering>
          </technical>
        </notations>
      </note>
      <note color="#FFFFFF">
        <pitch>
          <step>E</step>
          <octave>4</octave>
        </pitch>
        <duration>10080</duration>
        <type>quarter</type>
        <stem>up</stem>
        <notehead color="#FFFFFF" parentheses="no">normal</notehead>
        <notations>
          <technical>
            <fingering alternate="no" substitution="no">3</fingering>
          </technical>
        </notations>
      </note>
      <note color="#FFFFFF">
        <pitch>
          <step>D</step>
          <octave>4</octave>
        </pitch>
        <duration>10080</duration>
        <type>quarter</type>
        <stem>up</stem>
        <notehead color="#FFFFFF" parentheses="no">normal</notehead>
        <notations>
          <technical>
            <fingering alternate="no" substitution="no">2</fingering>
          </technical>
        </notations>
      </note>
      <note color="#FFFFFF">
        <pitch>
          <step>G</step>
          <octave>4</octave>
        </pitch>
        <duration>10080</duration>
        <type>quarter</type>
        <stem>up</stem>
        <notehead color="#FFFFFF" parentheses="no">normal</notehead>
        <notations>
          <technical>
            <fingering alternate="no" substitution="no">4</fingering>
          </technical>
        </notations>
      </note>
    </measure>
    <!--========================= Measure 16 =========================-->
    <measure number="16">
      <note color="#FFFFFF">
        <pitch>
          <step>D</step>
          <octave>4</octave>
        </pitch>
        <duration>20160</duration>
        <type>half</type>
        <stem>up</stem>
        <notehead color="#FFFFFF" parentheses="no">normal</notehead>
        <notations>
          <articulations>
            <accent />
          </articulations>
          <technical>
            <fingering alternate="no" substitution="no">2</fingering>
          </technical>
        </notations>
      </note>
      <note color="#FFFFFF">
        <pitch>
          <step>D</step>
          <octave>4</octave>
        </pitch>
        <duration>10080</duration>
        <type>quarter</type>
        <stem>up</stem>
        <notehead color="#FFFFFF" parentheses="no">normal</notehead>
        <notations>
          <technical>
            <fingering alternate="no" substitution="no">0</fingering>
          </technical>
        </notations>
      </note>
      <note>
        <rest />
        <duration>10080</duration>
        <type>quarter</type>
      </note>
      <barline location="right">
        <bar-style>light-heavy</bar-style>
      </barline>
    </measure>
  </part>
  <!--=========================== Part 2 ===========================-->
  <part id="P2">
    <!--========================= Measure 1 ==========================-->
    <measure number="1">
      <attributes>
        <divisions>10080</divisions>
        <time>
          <beats>4</beats>
          <beat-type>4</beat-type>
        </time>
        <clef>
          <sign>F</sign>
          <line>4</line>
        </clef>
      </attributes>
      <note>
        <rest measure="yes" />
        <duration>40320</duration>
      </note>
    </measure>
    <!--========================= Measure 2 ==========================-->
    <measure number="2">
      <note color="#A1DE00">
        <pitch>
          <step>D</step>
          <octave>3</octave>
        </pitch>
        <duration>10080</duration>
        <type>quarter</type>
        <stem>down</stem>
        <notehead color="#A1DE00" parentheses="no">normal</notehead>
        <notations>
          <slur number="6" type="start" />
          <articulations>
            <accent />
          </articulations>
          <technical>
            <fingering alternate="no" substitution="no">-4</fingering>
          </technical>
        </notations>
      </note>
      <note color="#A1DE00">
        <pitch>
          <step>C</step>
          <octave>3</octave>
        </pitch>
        <duration>10080</duration>
        <type>quarter</type>
        <stem>up</stem>
        <notehead color="#A1DE00" parentheses="no">normal</notehead>
        <notations>
          <technical>
            <fingering alternate="no" substitution="no">-5</fingering>
          </technical>
        </notations>
      </note>
      <note color="#A1DE00">
        <pitch>
          <step>D</step>
          <octave>3</octave>
        </pitch>
        <duration>10080</duration>
        <type>quarter</type>
        <stem>down</stem>
        <notehead color="#A1DE00" parentheses="no">normal</notehead>
        <notations>
          <technical>
            <fingering alternate="no" substitution="no">-4</fingering>
          </technical>
        </notations>
      </note>
      <note color="#A1DE00">
        <pitch>
          <step>E</step>
          <octave>3</octave>
        </pitch>
        <duration>10080</duration>
        <type>quarter</type>
        <stem>down</stem>
        <notehead color="#A1DE00" parentheses="no">normal</notehead>
        <notations>
          <technical>
            <fingering alternate="no" substitution="no">-3</fingering>
          </technical>
        </notations>
      </note>
    </measure>
    <!--========================= Measure 3 ==========================-->
    <measure number="3">
      <note color="#A1DE00">
        <pitch>
          <step>F</step>
          <octave>3</octave>
        </pitch>
        <duration>10080</duration>
        <type>quarter</type>
        <stem>down</stem>
        <notehead color="#A1DE00" parentheses="no">normal</notehead>
        <notations>
          <technical>
            <fingering alternate="no" substitution="no">-2</fingering>
          </technical>
        </notations>
      </note>
      <note color="#A1DE00">
        <pitch>
          <step>E</step>
          <octave>3</octave>
        </pitch>
        <duration>10080</duration>
        <type>quarter</type>
        <stem>down</stem>
        <notehead color="#A1DE00" parentheses="no">normal</notehead>
        <notations>
          <slur number="6" type="stop" />
          <technical>
            <fingering alternate="no" substitution="no">-3</fingering>
          </technical>
        </notations>
      </note>
      <note color="#A1DE00">
        <pitch>
          <step>D</step>
          <octave>3</octave>
        </pitch>
        <duration>20160</duration>
        <type>half</type>
        <stem>down</stem>
        <notehead color="#A1DE00" parentheses="no">normal</notehead>
        <notations>
          <technical>
            <fingering alternate="no" substitution="no">-4</fingering>
          </technical>
        </notations>
      </note>
    </measure>
    <!--========================= Measure 4 ==========================-->
    <measure number="4">
      <note color="#A1DE00">
        <pitch>
          <step>D</step>
          <octave>3</octave>
        </pitch>
        <duration>10080</duration>
        <type>quarter</type>
        <stem>down</stem>
        <notehead color="#A1DE00" parentheses="no">normal</notehead>
        <notations>
          <slur number="1" type="start" />
          <articulations>
            <accent />
          </articulations>
          <technical>
            <fingering alternate="no" substitution="no">-5</fingering>
          </technical>
        </notations>
      </note>
      <note color="#A1DE00">
        <pitch>
          <step>E</step>
          <octave>3</octave>
        </pitch>
        <duration>10080</duration>
        <type>quarter</type>
        <stem>down</stem>
        <notehead color="#A1DE00" parentheses="no">normal</notehead>
        <notations>
          <technical>
            <fingering alternate="no" substitution="no">-4</fingering>
          </technical>
        </notations>
      </note>
      <note color="#A1DE00">
        <pitch>
          <step>F</step>
          <octave>3</octave>
        </pitch>
        <duration>10080</duration>
        <type>quarter</type>
        <stem>down</stem>
        <notehead color="#A1DE00" parentheses="no">normal</notehead>
        <notations>
          <technical>
            <fingering alternate="no" substitution="no">-3</fingering>
          </technical>
        </notations>
      </note>
      <note color="#A1DE00">
        <pitch>
          <step>C</step>
          <octave>3</octave>
        </pitch>
        <duration>10080</duration>
        <type>quarter</type>
        <stem>up</stem>
        <notehead color="#A1DE00" parentheses="no">normal</notehead>
        <notations>
          <technical>
            <fingering alternate="no" substitution="no">-5</fingering>
          </technical>
        </notations>
      </note>
    </measure>
    <!--========================= Measure 5 ==========================-->
    <measure number="5">
      <note color="#A1DE00">
        <pitch>
          <step>D</step>
          <octave>3</octave>
        </pitch>
        <duration>20160</duration>
        <type>half</type>
        <stem>down</stem>
        <notehead color="#A1DE00" parentheses="no">normal</notehead>
        <notations>
          <slur number="1" type="stop" />
          <articulations>
            <accent />
          </articulations>
          <technical>
            <fingering alternate="no" substitution="no">-4</fingering>
          </technical>
        </notations>
      </note>
      <note color="#A1DE00">
        <pitch>
          <step>D</step>
          <octave>3</octave>
        </pitch>
        <duration>10080</duration>
        <type>quarter</type>
        <stem>down</stem>
        <notehead color="#A1DE00" parentheses="no">normal</notehead>
        <notations>
          <technical>
            <fingering alternate="no" substitution="no">-3</fingering>
          </technical>
        </notations>
      </note>
      <note>
        <rest />
        <duration>10080</duration>
        <type>quarter</type>
      </note>
    </measure>
    <!--========================= Measure 6 ==========================-->
    <measure number="6">
      <note color="#A1DE00">
        <pitch>
          <step>D</step>
          <octave>3</octave>
        </pitch>
        <duration>10080</duration>
        <type>quarter</type>
        <stem>down</stem>
        <notehead color="#A1DE00" parentheses="no">normal</notehead>
        <notations>
          <slur number="2" type="start" />
          <articulations>
            <accent />
          </articulations>
          <technical>
            <fingering alternate="no" substitution="no">-3</fingering>
          </technical>
        </notations>
      </note>
      <note color="#A1DE00">
        <pitch>
          <step>G</step>
          <octave>3</octave>
        </pitch>
        <duration>10080</duration>
        <type>quarter</type>
        <stem>down</stem>
        <notehead color="#A1DE00" parentheses="no">normal</notehead>
        <notations>
          <technical>
            <fingering alternate="no" substitution="no">-1</fingering>
          </technical>
        </notations>
      </note>
      <note color="#A1DE00">
        <pitch>
          <step>F</step>
          <octave>3</octave>
        </pitch>
        <duration>10080</duration>
        <type>quarter</type>
        <stem>down</stem>
        <notehead color="#A1DE00" parentheses="no">normal</notehead>
        <notations>
          <technical>
            <fingering alternate="no" substitution="no">-2</fingering>
          </technical>
        </notations>
      </note>
      <note color="#A1DE00">
        <pitch>
          <step>E</step>
          <octave>3</octave>
        </pitch>
        <duration>10080</duration>
        <type>quarter</type>
        <stem>down</stem>
        <notehead color="#A1DE00" parentheses="no">normal</notehead>
        <notations>
          <technical>
            <fingering alternate="no" substitution="no">-3</fingering>
          </technical>
        </notations>
      </note>
    </measure>
    <!--========================= Measure 7 ==========================-->
    <measure number="7">
      <note color="#A1DE00">
        <pitch>
          <step>F</step>
          <octave>3</octave>
        </pitch>
        <duration>10080</duration>
        <type>quarter</type>
        <stem>down</stem>
        <notehead color="#A1DE00" parentheses="no">normal</notehead>
        <notations>
          <slur number="2" type="stop" />
          <technical>
            <fingering alternate="no" substitution="no">-2</fingering>
          </technical>
        </notations>
      </note>
      <note color="#A1DE00">
        <pitch>
          <step>E</step>
          <octave>3</octave>
        </pitch>
        <duration>10080</duration>
        <type>quarter</type>
        <stem>down</stem>
        <notehead color="#A1DE00" parentheses="no">normal</notehead>
        <notations>
          <technical>
            <fingering alternate="no" substitution="no">-3</fingering>
          </technical>
        </notations>
      </note>
      <note color="#A1DE00">
        <pitch>
          <step>D</step>
          <octave>3</octave>
        </pitch>
        <duration>10080</duration>
        <type>quarter</type>
        <stem>down</stem>
        <notehead color="#A1DE00" parentheses="no">normal</notehead>
        <notations>
          <technical>
            <fingering alternate="no" substitution="no">-4</fingering>
          </technical>
        </notations>
      </note>
      <note color="#A1DE00">
        <pitch>
          <step>C</step>
          <octave>3</octave>
        </pitch>
        <duration>10080</duration>
        <type>quarter</type>
        <stem>up</stem>
        <notehead color="#A1DE00" parentheses="no">normal</notehead>
        <notations>
          <technical>
            <fingering alternate="no" substitution="no">-5</fingering>
          </technical>
        </notations>
      </note>
    </measure>
    <!--========================= Measure 8 ==========================-->
    <measure number="8">
      <note color="#A1DE00">
        <pitch>
          <step>D</step>
          <octave>3</octave>
        </pitch>
        <duration>10080</duration>
        <type>quarter</type>
        <stem>down</stem>
        <notehead color="#A1DE00" parentheses="no">normal</notehead>
        <notations>
          <articulations>
            <accent />
          </articulations>
          <technical>
            <fingering alternate="no" substitution="no">-4</fingering>
          </technical>
        </notations>
      </note>
      <note color="#A1DE00">
        <pitch>
          <step>E</step>
          <octave>3</octave>
        </pitch>
        <duration>10080</duration>
        <type>quarter</type>
        <stem>down</stem>
        <notehead color="#A1DE00" parentheses="no">normal</notehead>
        <notations>
          <technical>
            <fingering alternate="no" substitution="no">-3</fingering>
          </technical>
        </notations>
      </note>
      <note color="#A1DE00">
        <pitch>
          <step>F</step>
          <octave>3</octave>
        </pitch>
        <duration>10080</duration>
        <type>quarter</type>
        <stem>down</stem>
        <notehead color="#A1DE00" parentheses="no">normal</notehead>
        <notations>
          <technical>
            <fingering alternate="no" substitution="no">-2</fingering>
          </technical>
        </notations>
      </note>
      <note color="#A1DE00">
        <pitch>
          <step>G</step>
          <octave>3</octave>
        </pitch>
        <duration>10080</duration>
        <type>quarter</type>
        <stem>down</stem>
        <notehead color="#A1DE00" parentheses="no">normal</notehead>
        <notations>
          <technical>
            <fingering alternate="no" substitution="no">-1</fingering>
          </technical>
        </notations>
      </note>
    </measure>
    <!--========================= Measure 9 ==========================-->
    <measure number="9">
      <print new-system="yes" />
      <barline location="left">
        <repeat direction="forward" />
      </barline>
      <note>
        <rest />
        <duration>20160</duration>
        <type>half</type>
      </note>
      <note color="#A1DE00">
        <pitch>
          <step>A</step>
          <octave>3</octave>
        </pitch>
        <duration>10080</duration>
        <type>quarter</type>
        <stem>down</stem>
        <notehead color="#A1DE00" parentheses="no">normal</notehead>
        <notations>
          <slur number="3" type="start" />
          <technical>
            <fingering alternate="no" substitution="no">-4</fingering>
          </technical>
        </notations>
      </note>
      <note color="#A1DE00">
        <pitch>
          <step>B</step>
          <octave>3</octave>
        </pitch>
        <duration>10080</duration>
        <type>quarter</type>
        <stem>down</stem>
        <notehead color="#A1DE00" parentheses="no">normal</notehead>
        <notations>
          <technical>
            <fingering alternate="no" substitution="no">-3</fingering>
          </technical>
        </notations>
      </note>
    </measure>
    <!--========================= Measure 10 =========================-->
    <measure number="10">
      <note color="#A1DE00">
        <pitch>
          <step>C</step>
          <octave>4</octave>
        </pitch>
        <duration>20160</duration>
        <type>half</type>
        <stem>down</stem>
        <notehead color="#A1DE00" parentheses="no">normal</notehead>
        <notations>
          <articulations>
            <accent />
          </articulations>
          <technical>
            <fingering alternate="no" substitution="no">-2</fingering>
          </technical>
        </notations>
      </note>
      <note color="#A1DE00">
        <pitch>
          <step>B</step>
          <octave>3</octave>
        </pitch>
        <duration>10080</duration>
        <type>quarter</type>
        <stem>down</stem>
        <notehead color="#A1DE00" parentheses="no">normal</notehead>
        <notations>
          <technical>
            <fingering alternate="no" substitution="no">-3</fingering>
          </technical>
        </notations>
      </note>
      <note color="#A1DE00">
        <pitch>
          <step>A</step>
          <octave>3</octave>
        </pitch>
        <duration>10080</duration>
        <type>quarter</type>
        <stem>down</stem>
        <notehead color="#A1DE00" parentheses="no">normal</notehead>
        <notations>
          <technical>
            <fingering alternate="no" substitution="no">-4</fingering>
          </technical>
        </notations>
      </note>
    </measure>
    <!--========================= Measure 11 =========================-->
    <measure number="11">
      <note color="#FFFFFF">
        <pitch>
          <step>G</step>
          <octave>3</octave>
        </pitch>
        <duration>20160</duration>
        <type>half</type>
        <stem>down</stem>
        <notehead color="#FFFFFF" parentheses="no">normal</notehead>
        <notations>
          <slur number="3" type="stop" />
          <articulations>
            <accent />
          </articulations>
          <technical>
            <fingering alternate="no" substitution="no">-5</fingering>
          </technical>
        </notations>
      </note>
      <note color="#FFFFFF">
        <pitch>
          <step>A</step>
          <octave>3</octave>
        </pitch>
        <duration>10080</duration>
        <type>quarter</type>
        <stem>down</stem>
        <notehead color="#FFFFFF" parentheses="no">normal</notehead>
        <notations>
          <technical>
            <fingering alternate="no" substitution="no">-4</fingering>
          </technical>
        </notations>
      </note>
      <note color="#FFFFFF">
        <pitch>
          <step>B</step>
          <octave>3</octave>
        </pitch>
        <duration>10080</duration>
        <type>quarter</type>
        <stem>down</stem>
        <notehead color="#FFFFFF" parentheses="no">normal</notehead>
        <notations>
          <technical>
            <fingering alternate="no" substitution="no">-3</fingering>
          </technical>
        </notations>
      </note>
    </measure>
    <!--========================= Measure 12 =========================-->
    <measure number="12">
      <note color="#FFFFFF">
        <pitch>
          <step>C</step>
          <octave>4</octave>
        </pitch>
        <duration>10080</duration>
        <type>quarter</type>
        <stem>down</stem>
        <notehead color="#FFFFFF" parentheses="no">normal</notehead>
        <notations>
          <technical>
            <fingering alternate="no" substitution="no">-1</fingering>
          </technical>
        </notations>
      </note>
      <note color="#FFFFFF">
        <pitch>
          <step>G</step>
          <octave>3</octave>
        </pitch>
        <duration>10080</duration>
        <type>quarter</type>
        <stem>down</stem>
        <notehead color="#FFFFFF" parentheses="no">normal</notehead>
        <notations>
          <technical>
            <fingering alternate="no" substitution="no">-4</fingering>
          </technical>
        </notations>
      </note>
      <note color="#FFFFFF">
        <pitch>
          <step>A</step>
          <octave>3</octave>
        </pitch>
        <duration>20160</duration>
        <type>half</type>
        <stem>down</stem>
        <notehead color="#FFFFFF" parentheses="no">normal</notehead>
        <notations>
          <technical>
            <fingering alternate="no" substitution="no">-2</fingering>
          </technical>
        </notations>
      </note>
    </measure>
    <!--========================= Measure 13 =========================-->
    <measure number="13">
      <note>
        <rest />
        <duration>20160</duration>
        <type>half</type>
      </note>
      <note color="#FFFFFF">
        <pitch>
          <step>F</step>
          <octave>3</octave>
        </pitch>
        <duration>10080</duration>
        <type>quarter</type>
        <stem>down</stem>
        <notehead color="#FFFFFF" parentheses="no">normal</notehead>
        <notations>
          <slur number="4" type="start" />
          <technical>
            <fingering alternate="no" substitution="no">-4</fingering>
          </technical>
        </notations>
      </note>
      <note color="#FFFFFF">
        <pitch>
          <step>G</step>
          <octave>3</octave>
        </pitch>
        <duration>10080</duration>
        <type>quarter</type>
        <stem>down</stem>
        <notehead color="#FFFFFF" parentheses="no">normal</notehead>
        <notations>
          <technical>
            <fingering alternate="no" substitution="no">-3</fingering>
          </technical>
        </notations>
      </note>
    </measure>
    <!--========================= Measure 14 =========================-->
    <measure number="14">
      <note color="#FFFFFF">
        <pitch>
          <step>A</step>
          <octave>3</octave>
        </pitch>
        <duration>20160</duration>
        <type>half</type>
        <stem>down</stem>
        <notehead color="#FFFFFF" parentheses="no">normal</notehead>
        <notations>
          <articulations>
            <accent />
          </articulations>
          <technical>
            <fingering alternate="no" substitution="no">-2</fingering>
          </technical>
        </notations>
      </note>
      <note color="#FFFFFF">
        <pitch>
          <step>E</step>
          <octave>3</octave>
        </pitch>
        <duration>10080</duration>
        <type>quarter</type>
        <stem>down</stem>
        <notehead color="#FFFFFF" parentheses="no">normal</notehead>
        <notations>
          <slur number="4" type="stop" />
          <technical>
            <fingering alternate="no" substitution="no">-4</fingering>
          </technical>
        </notations>
      </note>
      <note color="#FFFFFF">
        <pitch>
          <step>F</step>
          <octave>3</octave>
        </pitch>
        <duration>10080</duration>
        <type>quarter</type>
        <stem>down</stem>
        <notehead color="#FFFFFF" parentheses="no">normal</notehead>
        <notations>
          <technical>
            <fingering alternate="no" substitution="no">-3</fingering>
          </technical>
        </notations>
      </note>
    </measure>
    <!--========================= Measure 15 =========================-->
    <measure number="15">
      <note color="#FFFFFF">
        <pitch>
          <step>G</step>
          <octave>3</octave>
        </pitch>
        <duration>20160</duration>
        <type>half</type>
        <stem>down</stem>
        <notehead color="#FFFFFF" parentheses="no">normal</notehead>
        <notations>
          <technical>
            <fingering alternate="no" substitution="no">-2</fingering>
          </technical>
        </notations>
      </note>
      <note color="#FFFFFF">
        <pitch>
          <step>F</step>
          <octave>3</octave>
        </pitch>
        <duration>10080</duration>
        <type>quarter</type>
        <stem>down</stem>
        <notehead color="#FFFFFF" parentheses="no">normal</notehead>
        <notations>
          <technical>
            <fingering alternate="no" substitution="no">-3</fingering>
          </technical>
        </notations>
      </note>
      <note color="#FFFFFF">
        <pitch>
          <step>E</step>
          <octave>3</octave>
        </pitch>
        <duration>10080</duration>
        <type>quarter</type>
        <stem>down</stem>
        <notehead color="#FFFFFF" parentheses="no">normal</notehead>
        <notations>
          <technical>
            <fingering alternate="no" substitution="no">-4</fingering>
          </technical>
        </notations>
      </note>
    </measure>
    <!--========================= Measure 16 =========================-->
    <measure number="16">
      <note color="#FFFFFF">
        <pitch>
          <step>D</step>
          <octave>3</octave>
        </pitch>
        <duration>20160</duration>
        <type>half</type>
        <stem>down</stem>
        <notehead color="#FFFFFF" parentheses="no">normal</notehead>
        <notations>
          <articulations>
            <accent />
          </articulations>
          <technical>
            <fingering alternate="no" substitution="no">-5</fingering>
          </technical>
        </notations>
      </note>
      <note color="#FFFFFF">
        <pitch>
          <step>D</step>
          <octave>3</octave>
        </pitch>
        <duration>10080</duration>
        <type>quarter</type>
        <stem>down</stem>
        <notehead color="#FFFFFF" parentheses="no">normal</notehead>
        <notations>
          <technical>
            <fingering alternate="no" substitution="no">0</fingering>
          </technical>
        </notations>
      </note>
      <note>
        <rest />
        <duration>10080</duration>
        <type>quarter</type>
      </note>
      <barline location="right">
        <bar-style>light-heavy</bar-style>
      </barline>
    </measure>
  </part>
</score-partwise>