<?xml version="1.0" encoding="utf-8"?>
<!DOCTYPE score-partwise  PUBLIC "-//Recordare//DTD MusicXML 3.1 Partwise//EN" "http://www.musicxml.org/dtds/partwise.dtd">
<score-partwise version="3.1">
  <work>
    <work-title>Reflection, Mikrokosmos, Sz. 107</work-title>
  </work>
  <movement-title>12.xml</movement-title>
  <identification>
    <creator type="composer">Béla Bartók</creator>
    <creator />
    <rights>None</rights>
    <encoding>
      <encoding-date>2021-11-23</encoding-date>
      <software>music21 v.7.1.0</software>
    </encoding>
  </identification>
  <defaults>
    <scaling>
      <millimeters>71</millimeters>
      <tenths>400</tenths>
    </scaling>
    <page-layout>
      <page-height>872</page-height>
      <page-width>1258</page-width>
    </page-layout>
  </defaults>
  <part-list>
    <score-part id="P1">
      <part-name>Piano</part-name>
      <part-abbreviation>Pno</part-abbreviation>
      <score-instrument id="I62fd17efeb87e4123151b07369997b0f">
        <instrument-name>Piano</instrument-name>
        <instrument-abbreviation>Pno</instrument-abbreviation>
      </score-instrument>
      <midi-instrument id="I62fd17efeb87e4123151b07369997b0f">
        <midi-channel>1</midi-channel>
        <midi-program>1</midi-program>
      </midi-instrument>
    </score-part>
    <score-part id="P2">
      <part-name>Piano</part-name>
      <part-abbreviation>Pno</part-abbreviation>
      <score-instrument id="Id47bc76f8954e26aaf25cb547502bc37">
        <instrument-name>Piano</instrument-name>
        <instrument-abbreviation>Pno</instrument-abbreviation>
      </score-instrument>
      <midi-instrument id="Id47bc76f8954e26aaf25cb547502bc37">
        <midi-channel>2</midi-channel>
        <midi-program>1</midi-program>
      </midi-instrument>
    </score-part>
  </part-list>
  <!--=========================== Part 1 ===========================-->
  <part id="P1">
    <!--========================= Measure 1 ==========================-->
    <measure number="1">
      <attributes>
        <divisions>10080</divisions>
        <time>
          <beats>2</beats>
          <beat-type>2</beat-type>
        </time>
        <clef>
          <sign>G</sign>
          <line>2</line>
        </clef>
      </attributes>
      <direction placement="above">
        <direction-type>
          <metronome parentheses="no">
            <beat-unit>half</beat-unit>
            <per-minute>100</per-minute>
          </metronome>
        </direction-type>
        <sound tempo="200" />
      </direction>
      <note color="#6666FF">
        <pitch>
          <step>A</step>
          <octave>4</octave>
        </pitch>
        <duration>20160</duration>
        <type>half</type>
        <stem>up</stem>
        <notehead color="#6666FF" parentheses="no">normal</notehead>
        <notations>
          <slur number="1" type="start" />
          <technical>
            <fingering alternate="no" substitution="no">2</fingering>
          </technical>
        </notations>
      </note>
      <note color="#9999FF">
        <pitch>
          <step>B</step>
          <octave>4</octave>
        </pitch>
        <duration>10080</duration>
        <type>quarter</type>
        <stem>down</stem>
        <notehead color="#9999FF" parentheses="no">normal</notehead>
        <notations>
          <technical>
            <fingering alternate="no" substitution="no">3</fingering>
          </technical>
        </notations>
      </note>
      <note color="#9999FF">
        <pitch>
          <step>C</step>
          <octave>5</octave>
        </pitch>
        <duration>10080</duration>
        <type>quarter</type>
        <stem>down</stem>
        <notehead color="#9999FF" parentheses="no">normal</notehead>
        <notations>
          <technical>
            <fingering alternate="no" substitution="no">4</fingering>
          </technical>
        </notations>
      </note>
    </measure>
    <!--========================= Measure 2 ==========================-->
    <measure number="2">
      <note color="#6666FF">
        <pitch>
          <step>D</step>
          <octave>5</octave>
        </pitch>
        <duration>20160</duration>
        <type>half</type>
        <stem>down</stem>
        <notehead color="#6666FF" parentheses="no">normal</notehead>
        <notations>
          <technical>
            <fingering alternate="no" substitution="no">5</fingering>
          </technical>
        </notations>
      </note>
      <note color="#3333FF">
        <pitch>
          <step>C</step>
          <octave>5</octave>
        </pitch>
        <duration>20160</duration>
        <type>half</type>
        <stem>down</stem>
        <notehead color="#3333FF" parentheses="no">normal</notehead>
        <notations>
          <slur number="1" type="stop" />
          <technical>
            <fingering alternate="no" substitution="no">4</fingering>
          </technical>
        </notations>
      </note>
    </measure>
    <!--========================= Measure 3 ==========================-->
    <measure number="3">
      <note color="#0000CC">
        <pitch>
          <step>D</step>
          <octave>5</octave>
        </pitch>
        <duration>10080</duration>
        <type>quarter</type>
        <stem>down</stem>
        <notehead color="#0000CC" parentheses="no">normal</notehead>
        <notations>
          <technical>
            <fingering alternate="no" substitution="no">5</fingering>
          </technical>
        </notations>
      </note>
      <note color="#0000CC">
        <pitch>
          <step>C</step>
          <octave>5</octave>
        </pitch>
        <duration>10080</duration>
        <type>quarter</type>
        <stem>down</stem>
        <notehead color="#0000CC" parentheses="no">normal</notehead>
        <notations>
          <technical>
            <fingering alternate="no" substitution="no">4</fingering>
          </technical>
        </notations>
      </note>
      <note color="#0000CC">
        <pitch>
          <step>B</step>
          <octave>4</octave>
        </pitch>
        <duration>10080</duration>
        <type>quarter</type>
        <stem>down</stem>
        <notehead color="#0000CC" parentheses="no">normal</notehead>
        <notations>
          <technical>
            <fingering alternate="no" substitution="no">3</fingering>
          </technical>
        </notations>
      </note>
      <note color="#0000FF">
        <pitch>
          <step>A</step>
          <octave>4</octave>
        </pitch>
        <duration>10080</duration>
        <type>quarter</type>
        <stem>up</stem>
        <notehead color="#0000FF" parentheses="no">normal</notehead>
        <notations>
          <technical>
            <fingering alternate="no" substitution="no">2</fingering>
          </technical>
        </notations>
      </note>
    </measure>
    <!--========================= Measure 4 ==========================-->
    <measure number="4">
      <note color="#3333FF">
        <pitch>
          <step>B</step>
          <octave>4</octave>
        </pitch>
        <duration>10080</duration>
        <type>quarter</type>
        <stem>down</stem>
        <notehead color="#3333FF" parentheses="no">normal</notehead>
        <notations>
          <technical>
            <fingering alternate="no" substitution="no">3</fingering>
          </technical>
        </notations>
      </note>
      <note color="#6666FF">
        <pitch>
          <step>C</step>
          <octave>5</octave>
        </pitch>
        <duration>10080</duration>
        <type>quarter</type>
        <stem>down</stem>
        <notehead color="#6666FF" parentheses="no">normal</notehead>
        <notations>
          <technical>
            <fingering alternate="no" substitution="no">4</fingering>
          </technical>
        </notations>
      </note>
      <note color="#3333FF">
        <pitch>
          <step>D</step>
          <octave>5</octave>
        </pitch>
        <duration>10080</duration>
        <type>quarter</type>
        <stem>down</stem>
        <notehead color="#3333FF" parentheses="no">normal</notehead>
        <notations>
          <technical>
            <fingering alternate="no" substitution="no">5</fingering>
          </technical>
        </notations>
      </note>
      <note>
        <rest />
        <duration>10080</duration>
        <type>quarter</type>
      </note>
    </measure>
    <!--========================= Measure 5 ==========================-->
    <measure number="5">
      <note color="#0000FF">
        <pitch>
          <step>A</step>
          <octave>4</octave>
        </pitch>
        <duration>20160</duration>
        <type>half</type>
        <stem>up</stem>
        <notehead color="#0000FF" parentheses="no">normal</notehead>
        <notations>
          <slur number="2" type="start" />
          <technical>
            <fingering alternate="no" substitution="no">2</fingering>
          </technical>
        </notations>
      </note>
      <note color="#0000CC">
        <pitch>
          <step>B</step>
          <octave>4</octave>
        </pitch>
        <duration>10080</duration>
        <type>quarter</type>
        <stem>down</stem>
        <notehead color="#0000CC" parentheses="no">normal</notehead>
        <notations>
          <technical>
            <fingering alternate="no" substitution="no">3</fingering>
          </technical>
        </notations>
      </note>
      <note color="#000061">
        <pitch>
          <step>C</step>
          <octave>5</octave>
        </pitch>
        <duration>10080</duration>
        <type>quarter</type>
        <stem>down</stem>
        <notehead color="#000061" parentheses="no">normal</notehead>
        <notations>
          <technical>
            <fingering alternate="no" substitution="no">4</fingering>
          </technical>
        </notations>
      </note>
    </measure>
    <!--========================= Measure 6 ==========================-->
    <measure number="6">
      <note color="#000061">
        <pitch>
          <step>D</step>
          <octave>5</octave>
        </pitch>
        <duration>20160</duration>
        <type>half</type>
        <stem>down</stem>
        <notehead color="#000061" parentheses="no">normal</notehead>
        <notations>
          <technical>
            <fingering alternate="no" substitution="no">5</fingering>
          </technical>
        </notations>
      </note>
      <note color="#000061">
        <pitch>
          <step>C</step>
          <octave>5</octave>
        </pitch>
        <duration>20160</duration>
        <type>half</type>
        <stem>down</stem>
        <notehead color="#000061" parentheses="no">normal</notehead>
        <notations>
          <slur number="2" type="stop" />
          <technical>
            <fingering alternate="no" substitution="no">4</fingering>
          </technical>
        </notations>
      </note>
    </measure>
    <!--========================= Measure 7 ==========================-->
    <measure number="7">
      <print new-system="yes" />
      <note color="#000061">
        <pitch>
          <step>D</step>
          <octave>5</octave>
        </pitch>
        <duration>10080</duration>
        <type>quarter</type>
        <stem>down</stem>
        <notehead color="#000061" parentheses="no">normal</notehead>
        <notations>
          <slur number="3" type="start" />
          <technical>
            <fingering alternate="no" substitution="no">5</fingering>
          </technical>
        </notations>
      </note>
      <note color="#000061">
        <pitch>
          <step>C</step>
          <octave>5</octave>
        </pitch>
        <duration>10080</duration>
        <type>quarter</type>
        <stem>down</stem>
        <notehead color="#000061" parentheses="no">normal</notehead>
        <notations>
          <technical>
            <fingering alternate="no" substitution="no">4</fingering>
          </technical>
        </notations>
      </note>
      <note color="#000061">
        <pitch>
          <step>B</step>
          <octave>4</octave>
        </pitch>
        <duration>10080</duration>
        <type>quarter</type>
        <stem>down</stem>
        <notehead color="#000061" parentheses="no">normal</notehead>
        <notations>
          <technical>
            <fingering alternate="no" substitution="no">3</fingering>
          </technical>
        </notations>
      </note>
      <note color="#0000CC">
        <pitch>
          <step>A</step>
          <octave>4</octave>
        </pitch>
        <duration>10080</duration>
        <type>quarter</type>
        <stem>up</stem>
        <notehead color="#0000CC" parentheses="no">normal</notehead>
        <notations>
          <technical>
            <fingering alternate="no" substitution="no">2</fingering>
          </technical>
        </notations>
      </note>
    </measure>
    <!--========================= Measure 8 ==========================-->
    <measure number="8">
      <note color="#0000FF">
        <pitch>
          <step>G</step>
          <octave>4</octave>
        </pitch>
        <duration>10080</duration>
        <type>quarter</type>
        <stem>up</stem>
        <notehead color="#0000FF" parentheses="no">normal</notehead>
        <notations>
          <technical>
            <fingering alternate="no" substitution="no">1</fingering>
          </technical>
        </notations>
      </note>
      <note color="#6666FF">
        <pitch>
          <step>A</step>
          <octave>4</octave>
        </pitch>
        <duration>10080</duration>
        <type>quarter</type>
        <stem>up</stem>
        <notehead color="#6666FF" parentheses="no">normal</notehead>
        <notations>
          <technical>
            <fingering alternate="no" substitution="no">2</fingering>
          </technical>
        </notations>
      </note>
      <note color="#B3B3FF">
        <pitch>
          <step>B</step>
          <octave>4</octave>
        </pitch>
        <duration>10080</duration>
        <type>quarter</type>
        <stem>down</stem>
        <notehead color="#B3B3FF" parentheses="no">normal</notehead>
        <notations>
          <slur number="3" type="stop" />
          <technical>
            <fingering alternate="no" substitution="no">3</fingering>
          </technical>
        </notations>
      </note>
      <note>
        <rest />
        <duration>10080</duration>
        <type>quarter</type>
      </note>
    </measure>
    <!--========================= Measure 9 ==========================-->
    <measure number="9">
      <note color="#CCCCFF">
        <pitch>
          <step>C</step>
          <octave>5</octave>
        </pitch>
        <duration>10080</duration>
        <type>quarter</type>
        <stem>down</stem>
        <notehead color="#CCCCFF" parentheses="no">normal</notehead>
        <notations>
          <slur number="4" type="start" />
          <technical>
            <fingering alternate="no" substitution="no">4</fingering>
          </technical>
        </notations>
      </note>
      <note color="#B3B3FF">
        <pitch>
          <step>B</step>
          <octave>4</octave>
        </pitch>
        <duration>10080</duration>
        <type>quarter</type>
        <stem>down</stem>
        <notehead color="#B3B3FF" parentheses="no">normal</notehead>
        <notations>
          <technical>
            <fingering alternate="no" substitution="no">3</fingering>
          </technical>
        </notations>
      </note>
      <note color="#9999FF">
        <pitch>
          <step>A</step>
          <octave>4</octave>
        </pitch>
        <duration>10080</duration>
        <type>quarter</type>
        <stem>up</stem>
        <notehead color="#9999FF" parentheses="no">normal</notehead>
        <notations>
          <technical>
            <fingering alternate="no" substitution="no">2</fingering>
          </technical>
        </notations>
      </note>
      <note color="#3333FF">
        <pitch>
          <step>B</step>
          <octave>4</octave>
        </pitch>
        <duration>10080</duration>
        <type>quarter</type>
        <stem>down</stem>
        <notehead color="#3333FF" parentheses="no">normal</notehead>
        <notations>
          <technical>
            <fingering alternate="no" substitution="no">3</fingering>
          </technical>
        </notations>
      </note>
    </measure>
    <!--========================= Measure 10 =========================-->
    <measure number="10">
      <note color="#0000FF">
        <pitch>
          <step>C</step>
          <octave>5</octave>
        </pitch>
        <duration>10080</duration>
        <type>quarter</type>
        <stem>down</stem>
        <notehead color="#0000FF" parentheses="no">normal</notehead>
        <notations>
          <slur number="4" type="stop" />
          <technical>
            <fingering alternate="no" substitution="no">4</fingering>
          </technical>
        </notations>
      </note>
      <note color="#0000FF">
        <pitch>
          <step>B</step>
          <octave>4</octave>
        </pitch>
        <duration>10080</duration>
        <type>quarter</type>
        <stem>down</stem>
        <notehead color="#0000FF" parentheses="no">normal</notehead>
        <notations>
          <technical>
            <fingering alternate="no" substitution="no">3</fingering>
          </technical>
        </notations>
      </note>
      <note color="#0000CC">
        <pitch>
          <step>A</step>
          <octave>4</octave>
        </pitch>
        <duration>10080</duration>
        <type>quarter</type>
        <stem>up</stem>
        <notehead color="#0000CC" parentheses="no">normal</notehead>
        <notations>
          <technical>
            <fingering alternate="no" substitution="no">2</fingering>
          </technical>
        </notations>
      </note>
      <note color="#0000CC">
        <pitch>
          <step>B</step>
          <octave>4</octave>
        </pitch>
        <duration>10080</duration>
        <type>quarter</type>
        <stem>down</stem>
        <notehead color="#0000CC" parentheses="no">normal</notehead>
        <notations>
          <technical>
            <fingering alternate="no" substitution="no">4</fingering>
          </technical>
        </notations>
      </note>
    </measure>
    <!--========================= Measure 11 =========================-->
    <measure number="11">
      <note color="#000061">
        <pitch>
          <step>C</step>
          <octave>5</octave>
        </pitch>
        <duration>10080</duration>
        <type>quarter</type>
        <stem>down</stem>
        <notehead color="#000061" parentheses="no">normal</notehead>
        <notations>
          <technical>
            <fingering alternate="no" substitution="no">5</fingering>
          </technical>
        </notations>
      </note>
      <note color="#000061">
        <pitch>
          <step>B</step>
          <octave>4</octave>
        </pitch>
        <duration>10080</duration>
        <type>quarter</type>
        <stem>down</stem>
        <notehead color="#000061" parentheses="no">normal</notehead>
        <notations>
          <technical>
            <fingering alternate="no" substitution="no">4</fingering>
          </technical>
        </notations>
      </note>
      <note color="#000061">
        <pitch>
          <step>A</step>
          <octave>4</octave>
        </pitch>
        <duration>10080</duration>
        <type>quarter</type>
        <stem>up</stem>
        <notehead color="#000061" parentheses="no">normal</notehead>
        <notations>
          <technical>
            <fingering alternate="no" substitution="no">3</fingering>
          </technical>
        </notations>
      </note>
      <note color="#000061">
        <pitch>
          <step>B</step>
          <octave>4</octave>
        </pitch>
        <duration>10080</duration>
        <type>quarter</type>
        <stem>down</stem>
        <notehead color="#000061" parentheses="no">normal</notehead>
        <notations>
          <technical>
            <fingering alternate="no" substitution="no">4</fingering>
          </technical>
        </notations>
      </note>
    </measure>
    <!--========================= Measure 12 =========================-->
    <measure number="12">
      <note print-object="no" print-spacing="yes">
        <rest />
        <duration>20160</duration>
        <voice>1</voice>
        <type>half</type>
      </note>
      <note color="#0000CC">
        <pitch>
          <step>A</step>
          <octave>4</octave>
        </pitch>
        <duration>10080</duration>
        <voice>1</voice>
        <type>quarter</type>
        <stem>up</stem>
        <notehead color="#0000CC" parentheses="no">normal</notehead>
        <notations>
          <technical>
            <fingering alternate="no" substitution="no">2</fingering>
          </technical>
        </notations>
      </note>
      <note color="#0000CC">
        <pitch>
          <step>G</step>
          <octave>4</octave>
        </pitch>
        <duration>10080</duration>
        <voice>1</voice>
        <type>quarter</type>
        <stem>up</stem>
        <notehead color="#0000CC" parentheses="no">normal</notehead>
        <notations>
          <technical>
            <fingering alternate="no" substitution="no">1</fingering>
          </technical>
        </notations>
      </note>
      <backup>
        <duration>40320</duration>
      </backup>
      <note color="#000061">
        <pitch>
          <step>C</step>
          <octave>5</octave>
        </pitch>
        <duration>10080</duration>
        <voice>2</voice>
        <type>quarter</type>
        <stem>down</stem>
        <notehead color="#000061" parentheses="no">normal</notehead>
        <notations>
          <technical>
            <fingering alternate="no" substitution="no">5</fingering>
          </technical>
        </notations>
      </note>
      <note color="#000061">
        <pitch>
          <step>B</step>
          <octave>4</octave>
        </pitch>
        <duration>10080</duration>
        <voice>2</voice>
        <type>quarter</type>
        <stem>down</stem>
        <notehead color="#000061" parentheses="no">normal</notehead>
        <notations>
          <technical>
            <fingering alternate="no" substitution="no">3</fingering>
          </technical>
        </notations>
      </note>
      <note print-object="no" print-spacing="yes">
        <rest />
        <duration>20160</duration>
        <voice>2</voice>
        <type>half</type>
      </note>
    </measure>
    <!--========================= Measure 13 =========================-->
    <measure number="13">
      <print new-system="yes" />
      <note color="#0000FF">
        <pitch>
          <step>A</step>
          <octave>4</octave>
        </pitch>
        <duration>20160</duration>
        <type>half</type>
        <stem>up</stem>
        <notehead color="#0000FF" parentheses="no">normal</notehead>
        <notations>
          <slur number="5" type="start" />
          <technical>
            <fingering alternate="no" substitution="no">2</fingering>
          </technical>
        </notations>
      </note>
      <note color="#6666FF">
        <pitch>
          <step>B</step>
          <octave>4</octave>
        </pitch>
        <duration>10080</duration>
        <type>quarter</type>
        <stem>down</stem>
        <notehead color="#6666FF" parentheses="no">normal</notehead>
        <notations>
          <technical>
            <fingering alternate="no" substitution="no">3</fingering>
          </technical>
        </notations>
      </note>
      <note color="#9999FF">
        <pitch>
          <step>C</step>
          <octave>5</octave>
        </pitch>
        <duration>10080</duration>
        <type>quarter</type>
        <stem>down</stem>
        <notehead color="#9999FF" parentheses="no">normal</notehead>
        <notations>
          <technical>
            <fingering alternate="no" substitution="no">4</fingering>
          </technical>
        </notations>
      </note>
    </measure>
    <!--========================= Measure 14 =========================-->
    <measure number="14">
      <note color="#6666FF">
        <pitch>
          <step>D</step>
          <octave>5</octave>
        </pitch>
        <duration>20160</duration>
        <type>half</type>
        <stem>down</stem>
        <notehead color="#6666FF" parentheses="no">normal</notehead>
        <notations>
          <technical>
            <fingering alternate="no" substitution="no">5</fingering>
          </technical>
        </notations>
      </note>
      <note color="#3333FF">
        <pitch>
          <step>C</step>
          <octave>5</octave>
        </pitch>
        <duration>20160</duration>
        <type>half</type>
        <stem>down</stem>
        <notehead color="#3333FF" parentheses="no">normal</notehead>
        <notations>
          <slur number="5" type="stop" />
          <technical>
            <fingering alternate="no" substitution="no">4</fingering>
          </technical>
        </notations>
      </note>
    </measure>
    <!--========================= Measure 15 =========================-->
    <measure number="15">
      <attributes>
        <time>
          <beats>3</beats>
          <beat-type>2</beat-type>
        </time>
      </attributes>
      <note color="#0000FF">
        <pitch>
          <step>D</step>
          <octave>5</octave>
        </pitch>
        <duration>10080</duration>
        <type>quarter</type>
        <stem>down</stem>
        <notehead color="#0000FF" parentheses="no">normal</notehead>
        <notations>
          <slur number="6" type="start" />
          <technical>
            <fingering alternate="no" substitution="no">5</fingering>
          </technical>
        </notations>
      </note>
      <note color="#0000FF">
        <pitch>
          <step>C</step>
          <octave>5</octave>
        </pitch>
        <duration>10080</duration>
        <type>quarter</type>
        <stem>down</stem>
        <notehead color="#0000FF" parentheses="no">normal</notehead>
        <notations>
          <technical>
            <fingering alternate="no" substitution="no">4</fingering>
          </technical>
        </notations>
      </note>
      <note color="#3333FF">
        <pitch>
          <step>B</step>
          <octave>4</octave>
        </pitch>
        <duration>10080</duration>
        <type>quarter</type>
        <stem>down</stem>
        <notehead color="#3333FF" parentheses="no">normal</notehead>
        <notations>
          <slur number="6" type="stop" />
          <technical>
            <fingering alternate="no" substitution="no">3</fingering>
          </technical>
        </notations>
      </note>
      <note color="#9999FF">
        <pitch>
          <step>A</step>
          <octave>4</octave>
        </pitch>
        <duration>10080</duration>
        <type>quarter</type>
        <stem>up</stem>
        <notehead color="#9999FF" parentheses="no">normal</notehead>
        <notations>
          <technical>
            <fingering alternate="no" substitution="no">2</fingering>
          </technical>
        </notations>
      </note>
      <note color="#CCCCFF">
        <pitch>
          <step>B</step>
          <octave>4</octave>
        </pitch>
        <duration>10080</duration>
        <type>quarter</type>
        <stem>down</stem>
        <notehead color="#CCCCFF" parentheses="no">normal</notehead>
        <notations>
          <technical>
            <fingering alternate="no" substitution="no">3</fingering>
          </technical>
        </notations>
      </note>
      <note color="#E6E6FF">
        <pitch>
          <step>C</step>
          <octave>5</octave>
        </pitch>
        <duration>10080</duration>
        <type>quarter</type>
        <stem>down</stem>
        <notehead color="#E6E6FF" parentheses="no">normal</notehead>
        <notations>
          <technical>
            <fingering alternate="no" substitution="no">4</fingering>
          </technical>
        </notations>
      </note>
    </measure>
    <!--========================= Measure 16 =========================-->
    <measure number="16">
      <attributes>
        <time>
          <beats>2</beats>
          <beat-type>2</beat-type>
        </time>
      </attributes>
      <note color="#B3B3FF">
        <pitch>
          <step>D</step>
          <octave>5</octave>
        </pitch>
        <duration>20160</duration>
        <type>half</type>
        <stem>down</stem>
        <notehead color="#B3B3FF" parentheses="no">normal</notehead>
        <notations>
          <technical>
            <fingering alternate="no" substitution="no">5</fingering>
          </technical>
        </notations>
      </note>
      <note color="#3333FF">
        <pitch>
          <step>C</step>
          <octave>5</octave>
        </pitch>
        <duration>20160</duration>
        <type>half</type>
        <stem>down</stem>
        <notehead color="#3333FF" parentheses="no">normal</notehead>
        <notations>
          <technical>
            <fingering alternate="no" substitution="no">4</fingering>
          </technical>
        </notations>
      </note>
    </measure>
    <!--========================= Measure 17 =========================-->
    <measure number="17">
      <note color="#0000CC">
        <pitch>
          <step>D</step>
          <octave>5</octave>
        </pitch>
        <duration>10080</duration>
        <type>quarter</type>
        <stem>down</stem>
        <notehead color="#0000CC" parentheses="no">normal</notehead>
        <notations>
          <slur number="1" type="start" />
          <technical>
            <fingering alternate="no" substitution="no">5</fingering>
          </technical>
        </notations>
      </note>
      <note color="#0000CC">
        <pitch>
          <step>C</step>
          <octave>5</octave>
        </pitch>
        <duration>10080</duration>
        <type>quarter</type>
        <stem>down</stem>
        <notehead color="#0000CC" parentheses="no">normal</notehead>
        <notations>
          <technical>
            <fingering alternate="no" substitution="no">4</fingering>
          </technical>
        </notations>
      </note>
      <note color="#0000CC">
        <pitch>
          <step>B</step>
          <octave>4</octave>
        </pitch>
        <duration>10080</duration>
        <type>quarter</type>
        <stem>down</stem>
        <notehead color="#0000CC" parentheses="no">normal</notehead>
        <notations>
          <technical>
            <fingering alternate="no" substitution="no">3</fingering>
          </technical>
        </notations>
      </note>
      <note color="#0000CC">
        <pitch>
          <step>A</step>
          <octave>4</octave>
        </pitch>
        <duration>10080</duration>
        <type>quarter</type>
        <stem>up</stem>
        <notehead color="#0000CC" parentheses="no">normal</notehead>
        <notations>
          <technical>
            <fingering alternate="no" substitution="no">2</fingering>
          </technical>
        </notations>
      </note>
    </measure>
    <!--========================= Measure 18 =========================-->
    <measure number="18">
      <note color="#0000CC">
        <pitch>
          <step>B</step>
          <octave>4</octave>
        </pitch>
        <duration>10080</duration>
        <type>quarter</type>
        <stem>down</stem>
        <notehead color="#0000CC" parentheses="no">normal</notehead>
        <notations>
          <technical>
            <fingering alternate="no" substitution="no">3</fingering>
          </technical>
        </notations>
      </note>
      <note color="#FFFFFF">
        <pitch>
          <step>C</step>
          <octave>5</octave>
        </pitch>
        <duration>10080</duration>
        <type>quarter</type>
        <stem>down</stem>
        <notehead color="#FFFFFF" parentheses="no">normal</notehead>
        <notations>
          <technical>
            <fingering alternate="no" substitution="no">4</fingering>
          </technical>
        </notations>
      </note>
      <note color="#FFFFFF">
        <pitch>
          <step>D</step>
          <octave>5</octave>
        </pitch>
        <duration>10080</duration>
        <type>quarter</type>
        <stem>down</stem>
        <notehead color="#FFFFFF" parentheses="no">normal</notehead>
        <notations>
          <slur number="1" type="stop" />
          <technical>
            <fingering alternate="no" substitution="no">0</fingering>
          </technical>
        </notations>
      </note>
      <note>
        <rest />
        <duration>10080</duration>
        <type>quarter</type>
      </note>
      <barline location="right">
        <bar-style>light-heavy</bar-style>
      </barline>
    </measure>
  </part>
  <!--=========================== Part 2 ===========================-->
  <part id="P2">
    <!--========================= Measure 1 ==========================-->
    <measure number="1">
      <attributes>
        <divisions>10080</divisions>
        <time>
          <beats>2</beats>
          <beat-type>2</beat-type>
        </time>
        <clef>
          <sign>F</sign>
          <line>4</line>
        </clef>
      </attributes>
      <note color="#6666FF">
        <pitch>
          <step>G</step>
          <octave>3</octave>
        </pitch>
        <duration>20160</duration>
        <type>half</type>
        <stem>down</stem>
        <notehead color="#6666FF" parentheses="no">normal</notehead>
        <notations>
          <slur number="2" type="start" />
          <technical>
            <fingering alternate="no" substitution="no">-2</fingering>
          </technical>
        </notations>
      </note>
      <note color="#9999FF">
        <pitch>
          <step>F</step>
          <octave>3</octave>
        </pitch>
        <duration>10080</duration>
        <type>quarter</type>
        <stem>down</stem>
        <notehead color="#9999FF" parentheses="no">normal</notehead>
        <notations>
          <technical>
            <fingering alternate="no" substitution="no">-3</fingering>
          </technical>
        </notations>
      </note>
      <note color="#9999FF">
        <pitch>
          <step>E</step>
          <octave>3</octave>
        </pitch>
        <duration>10080</duration>
        <type>quarter</type>
        <stem>down</stem>
        <notehead color="#9999FF" parentheses="no">normal</notehead>
        <notations>
          <technical>
            <fingering alternate="no" substitution="no">-4</fingering>
          </technical>
        </notations>
      </note>
    </measure>
    <!--========================= Measure 2 ==========================-->
    <measure number="2">
      <note color="#6666FF">
        <pitch>
          <step>D</step>
          <octave>3</octave>
        </pitch>
        <duration>20160</duration>
        <type>half</type>
        <stem>down</stem>
        <notehead color="#6666FF" parentheses="no">normal</notehead>
        <notations>
          <technical>
            <fingering alternate="no" substitution="no">-5</fingering>
          </technical>
        </notations>
      </note>
      <note color="#3333FF">
        <pitch>
          <step>E</step>
          <octave>3</octave>
        </pitch>
        <duration>20160</duration>
        <type>half</type>
        <stem>down</stem>
        <notehead color="#3333FF" parentheses="no">normal</notehead>
        <notations>
          <slur number="2" type="stop" />
          <technical>
            <fingering alternate="no" substitution="no">-4</fingering>
          </technical>
        </notations>
      </note>
    </measure>
    <!--========================= Measure 3 ==========================-->
    <measure number="3">
      <note color="#0000CC">
        <pitch>
          <step>D</step>
          <octave>3</octave>
        </pitch>
        <duration>10080</duration>
        <type>quarter</type>
        <stem>down</stem>
        <notehead color="#0000CC" parentheses="no">normal</notehead>
        <notations>
          <technical>
            <fingering alternate="no" substitution="no">-5</fingering>
          </technical>
        </notations>
      </note>
      <note color="#0000CC">
        <pitch>
          <step>E</step>
          <octave>3</octave>
        </pitch>
        <duration>10080</duration>
        <type>quarter</type>
        <stem>down</stem>
        <notehead color="#0000CC" parentheses="no">normal</notehead>
        <notations>
          <technical>
            <fingering alternate="no" substitution="no">-4</fingering>
          </technical>
        </notations>
      </note>
      <note color="#0000CC">
        <pitch>
          <step>F</step>
          <octave>3</octave>
        </pitch>
        <duration>10080</duration>
        <type>quarter</type>
        <stem>down</stem>
        <notehead color="#0000CC" parentheses="no">normal</notehead>
        <notations>
          <technical>
            <fingering alternate="no" substitution="no">-3</fingering>
          </technical>
        </notations>
      </note>
      <note color="#0000FF">
        <pitch>
          <step>G</step>
          <octave>3</octave>
        </pitch>
        <duration>10080</duration>
        <type>quarter</type>
        <stem>down</stem>
        <notehead color="#0000FF" parentheses="no">normal</notehead>
        <notations>
          <technical>
            <fingering alternate="no" substitution="no">-2</fingering>
          </technical>
        </notations>
      </note>
    </measure>
    <!--========================= Measure 4 ==========================-->
    <measure number="4">
      <note color="#3333FF">
        <pitch>
          <step>F</step>
          <octave>3</octave>
        </pitch>
        <duration>10080</duration>
        <type>quarter</type>
        <stem>down</stem>
        <notehead color="#3333FF" parentheses="no">normal</notehead>
        <notations>
          <technical>
            <fingering alternate="no" substitution="no">-3</fingering>
          </technical>
        </notations>
      </note>
      <note color="#6666FF">
        <pitch>
          <step>E</step>
          <octave>3</octave>
        </pitch>
        <duration>10080</duration>
        <type>quarter</type>
        <stem>down</stem>
        <notehead color="#6666FF" parentheses="no">normal</notehead>
        <notations>
          <technical>
            <fingering alternate="no" substitution="no">-4</fingering>
          </technical>
        </notations>
      </note>
      <note color="#3333FF">
        <pitch>
          <step>D</step>
          <octave>3</octave>
        </pitch>
        <duration>10080</duration>
        <type>quarter</type>
        <stem>down</stem>
        <notehead color="#3333FF" parentheses="no">normal</notehead>
        <notations>
          <technical>
            <fingering alternate="no" substitution="no">-5</fingering>
          </technical>
        </notations>
      </note>
      <note>
        <rest />
        <duration>10080</duration>
        <type>quarter</type>
      </note>
    </measure>
    <!--========================= Measure 5 ==========================-->
    <measure number="5">
      <note color="#0000FF">
        <pitch>
          <step>G</step>
          <octave>3</octave>
        </pitch>
        <duration>20160</duration>
        <type>half</type>
        <stem>down</stem>
        <notehead color="#0000FF" parentheses="no">normal</notehead>
        <notations>
          <slur number="3" type="start" />
          <technical>
            <fingering alternate="no" substitution="no">-2</fingering>
          </technical>
        </notations>
      </note>
      <note color="#0000CC">
        <pitch>
          <step>F</step>
          <octave>3</octave>
        </pitch>
        <duration>10080</duration>
        <type>quarter</type>
        <stem>down</stem>
        <notehead color="#0000CC" parentheses="no">normal</notehead>
        <notations>
          <technical>
            <fingering alternate="no" substitution="no">-3</fingering>
          </technical>
        </notations>
      </note>
      <note color="#000061">
        <pitch>
          <step>E</step>
          <octave>3</octave>
        </pitch>
        <duration>10080</duration>
        <type>quarter</type>
        <stem>down</stem>
        <notehead color="#000061" parentheses="no">normal</notehead>
        <notations>
          <technical>
            <fingering alternate="no" substitution="no">-4</fingering>
          </technical>
        </notations>
      </note>
    </measure>
    <!--========================= Measure 6 ==========================-->
    <measure number="6">
      <note color="#000061">
        <pitch>
          <step>D</step>
          <octave>3</octave>
        </pitch>
        <duration>20160</duration>
        <type>half</type>
        <stem>down</stem>
        <notehead color="#000061" parentheses="no">normal</notehead>
        <notations>
          <technical>
            <fingering alternate="no" substitution="no">-5</fingering>
          </technical>
        </notations>
      </note>
      <note color="#000061">
        <pitch>
          <step>E</step>
          <octave>3</octave>
        </pitch>
        <duration>20160</duration>
        <type>half</type>
        <stem>down</stem>
        <notehead color="#000061" parentheses="no">normal</notehead>
        <notations>
          <slur number="3" type="stop" />
          <technical>
            <fingering alternate="no" substitution="no">-4</fingering>
          </technical>
        </notations>
      </note>
    </measure>
    <!--========================= Measure 7 ==========================-->
    <measure number="7">
      <print new-system="yes" />
      <note color="#000061">
        <pitch>
          <step>D</step>
          <octave>3</octave>
        </pitch>
        <duration>10080</duration>
        <type>quarter</type>
        <stem>down</stem>
        <notehead color="#000061" parentheses="no">normal</notehead>
        <notations>
          <slur number="4" type="start" />
          <technical>
            <fingering alternate="no" substitution="no">-5</fingering>
          </technical>
        </notations>
      </note>
      <note color="#000061">
        <pitch>
          <step>E</step>
          <octave>3</octave>
        </pitch>
        <duration>10080</duration>
        <type>quarter</type>
        <stem>down</stem>
        <notehead color="#000061" parentheses="no">normal</notehead>
        <notations>
          <technical>
            <fingering alternate="no" substitution="no">-4</fingering>
          </technical>
        </notations>
      </note>
      <note color="#000061">
        <pitch>
          <step>F</step>
          <octave>3</octave>
        </pitch>
        <duration>10080</duration>
        <type>quarter</type>
        <stem>down</stem>
        <notehead color="#000061" parentheses="no">normal</notehead>
        <notations>
          <technical>
            <fingering alternate="no" substitution="no">-3</fingering>
          </technical>
        </notations>
      </note>
      <note color="#0000CC">
        <pitch>
          <step>G</step>
          <octave>3</octave>
        </pitch>
        <duration>10080</duration>
        <type>quarter</type>
        <stem>down</stem>
        <notehead color="#0000CC" parentheses="no">normal</notehead>
        <notations>
          <technical>
            <fingering alternate="no" substitution="no">-2</fingering>
          </technical>
        </notations>
      </note>
    </measure>
    <!--========================= Measure 8 ==========================-->
    <measure number="8">
      <note color="#0000FF">
        <pitch>
          <step>A</step>
          <octave>3</octave>
        </pitch>
        <duration>10080</duration>
        <type>quarter</type>
        <stem>down</stem>
        <notehead color="#0000FF" parentheses="no">normal</notehead>
        <notations>
          <technical>
            <fingering alternate="no" substitution="no">-1</fingering>
          </technical>
        </notations>
      </note>
      <note color="#6666FF">
        <pitch>
          <step>G</step>
          <octave>3</octave>
        </pitch>
        <duration>10080</duration>
        <type>quarter</type>
        <stem>down</stem>
        <notehead color="#6666FF" parentheses="no">normal</notehead>
        <notations>
          <technical>
            <fingering alternate="no" substitution="no">-2</fingering>
          </technical>
        </notations>
      </note>
      <note color="#B3B3FF">
        <pitch>
          <step>F</step>
          <octave>3</octave>
        </pitch>
        <duration>10080</duration>
        <type>quarter</type>
        <stem>down</stem>
        <notehead color="#B3B3FF" parentheses="no">normal</notehead>
        <notations>
          <slur number="4" type="stop" />
          <technical>
            <fingering alternate="no" substitution="no">-3</fingering>
          </technical>
        </notations>
      </note>
      <note>
        <rest />
        <duration>10080</duration>
        <type>quarter</type>
      </note>
    </measure>
    <!--========================= Measure 9 ==========================-->
    <measure number="9">
      <note color="#CCCCFF">
        <pitch>
          <step>E</step>
          <octave>3</octave>
        </pitch>
        <duration>10080</duration>
        <type>quarter</type>
        <stem>down</stem>
        <notehead color="#CCCCFF" parentheses="no">normal</notehead>
        <notations>
          <slur number="5" type="start" />
          <technical>
            <fingering alternate="no" substitution="no">-4</fingering>
          </technical>
        </notations>
      </note>
      <note color="#B3B3FF">
        <pitch>
          <step>F</step>
          <octave>3</octave>
        </pitch>
        <duration>10080</duration>
        <type>quarter</type>
        <stem>down</stem>
        <notehead color="#B3B3FF" parentheses="no">normal</notehead>
        <notations>
          <technical>
            <fingering alternate="no" substitution="no">-3</fingering>
          </technical>
        </notations>
      </note>
      <note color="#9999FF">
        <pitch>
          <step>G</step>
          <octave>3</octave>
        </pitch>
        <duration>10080</duration>
        <type>quarter</type>
        <stem>down</stem>
        <notehead color="#9999FF" parentheses="no">normal</notehead>
        <notations>
          <technical>
            <fingering alternate="no" substitution="no">-2</fingering>
          </technical>
        </notations>
      </note>
      <note color="#3333FF">
        <pitch>
          <step>F</step>
          <octave>3</octave>
        </pitch>
        <duration>10080</duration>
        <type>quarter</type>
        <stem>down</stem>
        <notehead color="#3333FF" parentheses="no">normal</notehead>
        <notations>
          <technical>
            <fingering alternate="no" substitution="no">-3</fingering>
          </technical>
        </notations>
      </note>
    </measure>
    <!--========================= Measure 10 =========================-->
    <measure number="10">
      <note color="#0000FF">
        <pitch>
          <step>E</step>
          <octave>3</octave>
        </pitch>
        <duration>10080</duration>
        <type>quarter</type>
        <stem>down</stem>
        <notehead color="#0000FF" parentheses="no">normal</notehead>
        <notations>
          <technical>
            <fingering alternate="no" substitution="no">-4</fingering>
          </technical>
        </notations>
      </note>
      <note color="#0000FF">
        <pitch>
          <step>F</step>
          <octave>3</octave>
        </pitch>
        <duration>10080</duration>
        <type>quarter</type>
        <stem>down</stem>
        <notehead color="#0000FF" parentheses="no">normal</notehead>
        <notations>
          <technical>
            <fingering alternate="no" substitution="no">-3</fingering>
          </technical>
        </notations>
      </note>
      <note color="#0000CC">
        <pitch>
          <step>G</step>
          <octave>3</octave>
        </pitch>
        <duration>10080</duration>
        <type>quarter</type>
        <stem>down</stem>
        <notehead color="#0000CC" parentheses="no">normal</notehead>
        <notations>
          <technical>
            <fingering alternate="no" substitution="no">-2</fingering>
          </technical>
        </notations>
      </note>
      <note color="#0000CC">
        <pitch>
          <step>F</step>
          <octave>3</octave>
        </pitch>
        <duration>10080</duration>
        <type>quarter</type>
        <stem>down</stem>
        <notehead color="#0000CC" parentheses="no">normal</notehead>
        <notations>
          <technical>
            <fingering alternate="no" substitution="no">-4</fingering>
          </technical>
        </notations>
      </note>
    </measure>
    <!--========================= Measure 11 =========================-->
    <measure number="11">
      <note color="#000061">
        <pitch>
          <step>E</step>
          <octave>3</octave>
        </pitch>
        <duration>10080</duration>
        <type>quarter</type>
        <stem>down</stem>
        <notehead color="#000061" parentheses="no">normal</notehead>
        <notations>
          <slur number="5" type="stop" />
          <technical>
            <fingering alternate="no" substitution="no">-5</fingering>
          </technical>
        </notations>
      </note>
      <note color="#000061">
        <pitch>
          <step>F</step>
          <octave>3</octave>
        </pitch>
        <duration>10080</duration>
        <type>quarter</type>
        <stem>down</stem>
        <notehead color="#000061" parentheses="no">normal</notehead>
        <notations>
          <technical>
            <fingering alternate="no" substitution="no">-4</fingering>
          </technical>
        </notations>
      </note>
      <note color="#000061">
        <pitch>
          <step>G</step>
          <octave>3</octave>
        </pitch>
        <duration>10080</duration>
        <type>quarter</type>
        <stem>down</stem>
        <notehead color="#000061" parentheses="no">normal</notehead>
        <notations>
          <technical>
            <fingering alternate="no" substitution="no">-3</fingering>
          </technical>
        </notations>
      </note>
      <note color="#000061">
        <pitch>
          <step>F</step>
          <octave>3</octave>
        </pitch>
        <duration>10080</duration>
        <type>quarter</type>
        <stem>down</stem>
        <notehead color="#000061" parentheses="no">normal</notehead>
        <notations>
          <technical>
            <fingering alternate="no" substitution="no">-4</fingering>
          </technical>
        </notations>
      </note>
    </measure>
    <!--========================= Measure 12 =========================-->
    <measure number="12">
      <note color="#000061">
        <pitch>
          <step>E</step>
          <octave>3</octave>
        </pitch>
        <duration>10080</duration>
        <type>quarter</type>
        <stem>down</stem>
        <notehead color="#000061" parentheses="no">normal</notehead>
        <notations>
          <technical>
            <fingering alternate="no" substitution="no">-5</fingering>
          </technical>
        </notations>
      </note>
      <note color="#000061">
        <pitch>
          <step>F</step>
          <octave>3</octave>
        </pitch>
        <duration>10080</duration>
        <type>quarter</type>
        <stem>down</stem>
        <notehead color="#000061" parentheses="no">normal</notehead>
        <notations>
          <technical>
            <fingering alternate="no" substitution="no">-3</fingering>
          </technical>
        </notations>
      </note>
      <note color="#0000CC">
        <pitch>
          <step>G</step>
          <octave>3</octave>
        </pitch>
        <duration>10080</duration>
        <type>quarter</type>
        <stem>down</stem>
        <notehead color="#0000CC" parentheses="no">normal</notehead>
        <notations>
          <technical>
            <fingering alternate="no" substitution="no">-2</fingering>
          </technical>
        </notations>
      </note>
      <note color="#0000CC">
        <pitch>
          <step>A</step>
          <octave>3</octave>
        </pitch>
        <duration>10080</duration>
        <type>quarter</type>
        <stem>down</stem>
        <notehead color="#0000CC" parentheses="no">normal</notehead>
        <notations>
          <technical>
            <fingering alternate="no" substitution="no">-1</fingering>
          </technical>
        </notations>
      </note>
    </measure>
    <!--========================= Measure 13 =========================-->
    <measure number="13">
      <print new-system="yes" />
      <note color="#0000FF">
        <pitch>
          <step>G</step>
          <octave>3</octave>
        </pitch>
        <duration>20160</duration>
        <type>half</type>
        <stem>down</stem>
        <notehead color="#0000FF" parentheses="no">normal</notehead>
        <notations>
          <slur number="6" type="start" />
          <technical>
            <fingering alternate="no" substitution="no">-2</fingering>
          </technical>
        </notations>
      </note>
      <note color="#6666FF">
        <pitch>
          <step>F</step>
          <octave>3</octave>
        </pitch>
        <duration>10080</duration>
        <type>quarter</type>
        <stem>down</stem>
        <notehead color="#6666FF" parentheses="no">normal</notehead>
        <notations>
          <technical>
            <fingering alternate="no" substitution="no">-3</fingering>
          </technical>
        </notations>
      </note>
      <note color="#9999FF">
        <pitch>
          <step>E</step>
          <octave>3</octave>
        </pitch>
        <duration>10080</duration>
        <type>quarter</type>
        <stem>down</stem>
        <notehead color="#9999FF" parentheses="no">normal</notehead>
        <notations>
          <technical>
            <fingering alternate="no" substitution="no">-4</fingering>
          </technical>
        </notations>
      </note>
    </measure>
    <!--========================= Measure 14 =========================-->
    <measure number="14">
      <note color="#6666FF">
        <pitch>
          <step>D</step>
          <octave>3</octave>
        </pitch>
        <duration>20160</duration>
        <type>half</type>
        <stem>down</stem>
        <notehead color="#6666FF" parentheses="no">normal</notehead>
        <notations>
          <technical>
            <fingering alternate="no" substitution="no">-5</fingering>
          </technical>
        </notations>
      </note>
      <note color="#3333FF">
        <pitch>
          <step>E</step>
          <octave>3</octave>
        </pitch>
        <duration>20160</duration>
        <type>half</type>
        <stem>down</stem>
        <notehead color="#3333FF" parentheses="no">normal</notehead>
        <notations>
          <slur number="6" type="stop" />
          <technical>
            <fingering alternate="no" substitution="no">-4</fingering>
          </technical>
        </notations>
      </note>
    </measure>
    <!--========================= Measure 15 =========================-->
    <measure number="15">
      <attributes>
        <time>
          <beats>3</beats>
          <beat-type>2</beat-type>
        </time>
      </attributes>
      <note color="#0000FF">
        <pitch>
          <step>D</step>
          <octave>3</octave>
        </pitch>
        <duration>10080</duration>
        <type>quarter</type>
        <stem>down</stem>
        <notehead color="#0000FF" parentheses="no">normal</notehead>
        <notations>
          <slur number="1" type="start" />
          <technical>
            <fingering alternate="no" substitution="no">-5</fingering>
          </technical>
        </notations>
      </note>
      <note color="#0000FF">
        <pitch>
          <step>E</step>
          <octave>3</octave>
        </pitch>
        <duration>10080</duration>
        <type>quarter</type>
        <stem>down</stem>
        <notehead color="#0000FF" parentheses="no">normal</notehead>
        <notations>
          <technical>
            <fingering alternate="no" substitution="no">-4</fingering>
          </technical>
        </notations>
      </note>
      <note color="#3333FF">
        <pitch>
          <step>F</step>
          <octave>3</octave>
        </pitch>
        <duration>10080</duration>
        <type>quarter</type>
        <stem>down</stem>
        <notehead color="#3333FF" parentheses="no">normal</notehead>
        <notations>
          <technical>
            <fingering alternate="no" substitution="no">-3</fingering>
          </technical>
        </notations>
      </note>
      <note color="#9999FF">
        <pitch>
          <step>G</step>
          <octave>3</octave>
        </pitch>
        <duration>10080</duration>
        <type>quarter</type>
        <stem>down</stem>
        <notehead color="#9999FF" parentheses="no">normal</notehead>
        <notations>
          <slur number="1" type="stop" />
          <technical>
            <fingering alternate="no" substitution="no">-2</fingering>
          </technical>
        </notations>
      </note>
      <note color="#CCCCFF">
        <pitch>
          <step>F</step>
          <octave>3</octave>
        </pitch>
        <duration>10080</duration>
        <type>quarter</type>
        <stem>down</stem>
        <notehead color="#CCCCFF" parentheses="no">normal</notehead>
        <notations>
          <technical>
            <fingering alternate="no" substitution="no">-3</fingering>
          </technical>
        </notations>
      </note>
      <note color="#E6E6FF">
        <pitch>
          <step>E</step>
          <octave>3</octave>
        </pitch>
        <duration>10080</duration>
        <type>quarter</type>
        <stem>down</stem>
        <notehead color="#E6E6FF" parentheses="no">normal</notehead>
        <notations>
          <technical>
            <fingering alternate="no" substitution="no">-4</fingering>
          </technical>
        </notations>
      </note>
    </measure>
    <!--========================= Measure 16 =========================-->
    <measure number="16">
      <attributes>
        <time>
          <beats>2</beats>
          <beat-type>2</beat-type>
        </time>
      </attributes>
      <note color="#B3B3FF">
        <pitch>
          <step>D</step>
          <octave>3</octave>
        </pitch>
        <duration>20160</duration>
        <type>half</type>
        <stem>down</stem>
        <notehead color="#B3B3FF" parentheses="no">normal</notehead>
        <notations>
          <technical>
            <fingering alternate="no" substitution="no">-5</fingering>
          </technical>
        </notations>
      </note>
      <note color="#3333FF">
        <pitch>
          <step>E</step>
          <octave>3</octave>
        </pitch>
        <duration>20160</duration>
        <type>half</type>
        <stem>down</stem>
        <notehead color="#3333FF" parentheses="no">normal</notehead>
        <notations>
          <technical>
            <fingering alternate="no" substitution="no">-4</fingering>
          </technical>
        </notations>
      </note>
    </measure>
    <!--========================= Measure 17 =========================-->
    <measure number="17">
      <note color="#0000CC">
        <pitch>
          <step>F</step>
          <octave>3</octave>
        </pitch>
        <duration>10080</duration>
        <type>quarter</type>
        <stem>down</stem>
        <notehead color="#0000CC" parentheses="no">normal</notehead>
        <notations>
          <technical>
            <fingering alternate="no" substitution="no">-3</fingering>
          </technical>
        </notations>
      </note>
      <note>
        <rest />
        <duration>10080</duration>
        <type>quarter</type>
      </note>
      <note>
        <rest />
        <duration>10080</duration>
        <type>quarter</type>
      </note>
      <note color="#0000CC">
        <pitch>
          <step>G</step>
          <octave>3</octave>
        </pitch>
        <duration>10080</duration>
        <type>quarter</type>
        <stem>down</stem>
        <notehead color="#0000CC" parentheses="no">normal</notehead>
        <notations>
          <slur number="2" type="start" />
          <technical>
            <fingering alternate="no" substitution="no">-2</fingering>
          </technical>
        </notations>
      </note>
    </measure>
    <!--========================= Measure 18 =========================-->
    <measure number="18">
      <note color="#0000CC">
        <pitch>
          <step>F</step>
          <octave>3</octave>
        </pitch>
        <duration>10080</duration>
        <type>quarter</type>
        <stem>down</stem>
        <notehead color="#0000CC" parentheses="no">normal</notehead>
        <notations>
          <technical>
            <fingering alternate="no" substitution="no">-3</fingering>
          </technical>
        </notations>
      </note>
      <note color="#FFFFFF">
        <pitch>
          <step>E</step>
          <octave>3</octave>
        </pitch>
        <duration>10080</duration>
        <type>quarter</type>
        <stem>down</stem>
        <notehead color="#FFFFFF" parentheses="no">normal</notehead>
        <notations>
          <technical>
            <fingering alternate="no" substitution="no">-4</fingering>
          </technical>
        </notations>
      </note>
      <note color="#FFFFFF">
        <pitch>
          <step>D</step>
          <octave>3</octave>
        </pitch>
        <duration>10080</duration>
        <type>quarter</type>
        <stem>down</stem>
        <notehead color="#FFFFFF" parentheses="no">normal</notehead>
        <notations>
          <slur number="2" type="stop" />
          <technical>
            <fingering alternate="no" substitution="no">0</fingering>
          </technical>
        </notations>
      </note>
      <note>
        <rest />
        <duration>10080</duration>
        <type>quarter</type>
      </note>
      <barline location="right">
        <bar-style>light-heavy</bar-style>
      </barline>
    </measure>
  </part>
</score-partwise>